<svg width="388" height="341" viewBox="0 0 388 341" fill="none" xmlns="http://www.w3.org/2000/svg">
<path d="M0 4C0 1.79086 1.79086 0 4 0H71V337C71 339.209 69.2091 341 67 341H4C1.79086 341 0 339.209 0 337V4Z" fill="white"/>
<path d="M317 0H384C386.209 0 388 1.79086 388 4V337C388 339.209 386.209 341 384 341H321C318.791 341 317 339.209 317 337V0Z" fill="white"/>
<path d="M69 96V0H81.5989C83.0767 0 84.4342 0.814827 85.1291 2.11908L193.117 204.795C193.494 205.501 194.506 205.501 194.883 204.795L302.871 2.11908C303.566 0.814836 304.923 0 306.401 0H319L319 96L220.197 273.055C208.753 293.563 179.247 293.563 167.803 273.055L69 96Z" fill="white"/>
</svg>
